<svg xmlns="http://www.w3.org/2000/svg" width="352" height="352" viewBox="0 0 352 352" fill="#fff">
  <g id="instagram" transform="translate(-76 -76.2)">
    <g id="Group_2" data-name="Group 2">
      <g id="Group_1" data-name="Group 1">
        <path id="Path_1" data-name="Path 1" d="M296.8,219.8a54.855,54.855,0,0,0-89.6,0,56.83,56.83,0,0,0-10.4,32.4,55.2,55.2,0,1,0,110.4,0A56.829,56.829,0,0,0,296.8,219.8Z"/>
      </g>
    </g>
    <g id="Group_4" data-name="Group 4">
      <g id="Group_3" data-name="Group 3">
        <path id="Path_2" data-name="Path 2" d="M331.6,220.2c4,8,6.4,20.8,6.4,32a86,86,0,1,1-172,0c0-11.6,2.4-24,6.4-32H124V348.6c0,16.8,14.8,31.6,31.6,31.6H348.4c16.8,0,31.6-14.8,31.6-31.6V220.2Z"/>
      </g>
    </g>
    <g id="Group_6" data-name="Group 6">
      <g id="Group_5" data-name="Group 5">
        <path id="Path_3" data-name="Path 3" d="M365.6,131.4H319.2v53.2H372V131Z"/>
      </g>
    </g>
    <g id="Group_8" data-name="Group 8">
      <g id="Group_7" data-name="Group 7">
        <path id="Path_4" data-name="Path 4" d="M348.4,76.2H155.6C86,76.2,76,86.2,76,155.8V348.6c0,69.2,10,79.6,79.6,79.6H348.4c69.6,0,79.6-10,79.6-79.6V155.8C427.6,86.2,418,76.2,348.4,76.2ZM408,219.8h0V348.6c0,33.6-26,59.6-59.6,59.6H155.6c-33.6,0-59.6-26-59.6-59.6V155.8c0-33.6,26-59.6,59.6-59.6H348.4c33.6,0,59.6,26,59.6,59.6v64Z"/>
      </g>
    </g>
  </g>
</svg>
