<svg xmlns="http://www.w3.org/2000/svg" width="512" height="512" viewBox="0 0 512 512">
  <g id="subject" transform="translate(0 0)">
    <path id="Path_5" data-name="Path 5" d="M456.836,208.867h-192.8a55.226,55.226,0,0,0-55.164,55.164v104.75l-49.953,35.68a15,15,0,0,0,0,24.41l50.555,36.109A55.251,55.251,0,0,0,264.035,512h192.8A55.227,55.227,0,0,0,512,456.832v-192.8a55.226,55.226,0,0,0-55.164-55.164ZM392.008,419.64c-3.535,0-6.266-1.121-7.066-4.176l-6.109-21.371h-36.8l-6.1,21.371c-.8,3.055-3.535,4.176-7.07,4.176-5.625,0-13.176-3.531-13.176-8.672a9.275,9.275,0,0,1,.32-1.609L347.02,308.3c1.445-4.82,7.391-7.074,13.336-7.074,6.105,0,12.051,2.254,13.5,7.074l31.012,101.063a7.105,7.105,0,0,1,.32,1.609c0,4.977-7.551,8.672-13.176,8.672Zm0,0" fill="#27ae60"/>
    <path id="Path_6" data-name="Path 6" d="M346.375,377.7h27.961l-13.984-49.324Zm0,0" fill="#27ae60"/>
    <path id="Path_7" data-name="Path 7" d="M178.871,264.031a84.745,84.745,0,0,1,18.773-53.254,80.485,80.485,0,0,1-46.082-14.453,80.459,80.459,0,0,1-46.086,14.453,8.459,8.459,0,0,1,0-16.918,63.681,63.681,0,0,0,32.812-9.07,80.683,80.683,0,0,1-21.152-46.516H105.48a8.459,8.459,0,1,1,0-16.918h37.629V100.816a8.457,8.457,0,1,1,16.914,0v20.539h37.629a8.459,8.459,0,1,1,0,16.918H186a80.684,80.684,0,0,1-21.152,46.516,63.592,63.592,0,0,0,32.809,9.07,8.455,8.455,0,0,1,8.43,7.848,84.838,84.838,0,0,1,57.957-22.84h39.094V143.219l49.953-35.68a15,15,0,0,0,0-24.41L302.531,47.019A55.258,55.258,0,0,0,247.965,0H55.168A55.227,55.227,0,0,0,0,55.164v192.8a55.227,55.227,0,0,0,55.168,55.164h123.7Zm0,0" fill="#27ae60"/>
    <path id="Path_8" data-name="Path 8" d="M151.563,174.219a63.867,63.867,0,0,0,17.383-35.941H134.184A63.912,63.912,0,0,0,151.563,174.219Zm0,0" fill="#27ae60"/>
  </g>
</svg>
