<svg id="user" xmlns="http://www.w3.org/2000/svg" width="364.446" height="364.46" viewBox="0 0 364.446 364.46">
  <path id="Path_141" data-name="Path 141" d="M72.537,238.718,18.163,268.377a48.863,48.863,0,0,0-8.726,6.21,182.114,182.114,0,0,0,233.99.605,48.239,48.239,0,0,0-9.586-6.423L175.617,239.66a22.2,22.2,0,0,1-12.275-19.86V196.956a87.938,87.938,0,0,0,5.508-7.083,133.974,133.974,0,0,0,18.1-36.474A18.288,18.288,0,0,0,199.919,136V111.618a18.2,18.2,0,0,0-6.093-13.513V62.856S201.067,8,126.779,8,59.733,62.856,59.733,62.856V98.105a18.179,18.179,0,0,0-6.093,13.513V136a18.281,18.281,0,0,0,8.431,15.342c6.093,26.523,22.046,45.613,22.046,45.613v22.28A22.227,22.227,0,0,1,72.537,238.718Z" transform="translate(55.457 47.018)" fill="#e7eced"/>
  <g id="Group_20" data-name="Group 20" transform="translate(0 0)">
    <path id="Path_142" data-name="Path 142" d="M185.345.027C84.72-1.692,1.746,78.489.027,179.115A181.681,181.681,0,0,0,64.97,321.55a48.421,48.421,0,0,1,8.644-6.148l54.373-29.659a22.212,22.212,0,0,0,11.573-19.5v-22.28s-15.961-19.089-22.046-45.613a18.288,18.288,0,0,1-8.431-15.342V158.629a18.2,18.2,0,0,1,6.093-13.513V109.867s-7.241-54.855,67.047-54.855,67.047,54.855,67.047,54.855v35.249a18.179,18.179,0,0,1,6.093,13.513v24.384a18.288,18.288,0,0,1-12.969,17.4,133.973,133.973,0,0,1-18.1,36.474,87.941,87.941,0,0,1-5.508,7.083v22.844a22.2,22.2,0,0,0,12.275,19.86l58.224,29.109a48.481,48.481,0,0,1,9.558,6.409A182.187,182.187,0,0,0,185.345.027Z" transform="translate(0 0)" fill="#556080"/>
  </g>
</svg>
